<?xml version="1.0" encoding="utf-8"?>
<!-- Generator: Adobe Illustrator 16.0.0, SVG Export Plug-In . SVG Version: 6.00 Build 0)  -->
<!DOCTYPE svg PUBLIC "-//W3C//DTD SVG 1.1//EN" "http://www.w3.org/Graphics/SVG/1.1/DTD/svg11.dtd">
<svg version="1.1" id="图层_1" xmlns="http://www.w3.org/2000/svg" xmlns:xlink="http://www.w3.org/1999/xlink" x="0px" y="0px"
	 width="997.795px" height="997.795px" viewBox="0 0 997.795 997.795" enable-background="new 0 0 997.795 997.795"
	 xml:space="preserve">
<g id="图层_x0020_1">
	<path fill="#332C2B" d="M65.225,231.279c0,0,82.602-113.216,118.318-141.052c35.745-27.836,54.851-42.066,103.55-7.427
		c48.671,34.64,85.635,72.992,113.386,116.306c27.723,43.313,36.964,82.262-7.398,111.345
		c-44.362,29.083-123.874,63.1-91.219,136.092c32.683,73.021,133.114,165.798,133.114,165.798s75.175,73.616,125.717,89.093
		c50.542,15.478,75.175-14.854,91.19-42.065c16.044-27.213,48.699-99.609,101.084-81.666
		c52.355,17.943,96.122,53.829,135.553,98.985c39.458,45.156,72.113,84.133,19.729,141.052
		c-52.384,56.92-138.047,116.306-138.047,116.306s-38.211,7.427-98.589-12.388c-60.378-19.785-273.601-93.401-426.444-277.143
		c-30.33-36.482-155.905-228.274-175.011-351.383C70.157,293.131,56.608,243.638,65.225,231.279z"/>
</g>
</svg>
