<?xml version="1.0" encoding="utf-8"?>
<!-- Generator: Adobe Illustrator 19.0.0, SVG Export Plug-In . SVG Version: 6.00 Build 0)  -->
<svg version="1.1" id="_x37C_" xmlns="http://www.w3.org/2000/svg" xmlns:xlink="http://www.w3.org/1999/xlink" x="0px" y="0px"
	 viewBox="0 0 997.8 997.8" style="enable-background:new 0 0 997.8 997.8;" xml:space="preserve">
<style type="text/css">
	.st0{fill:#040000;}
</style>
<g>
	<path class="st0" d="M499.5,62.1c-241.1,0-436.5,195.4-436.5,436.5s195.4,436.5,436.5,436.5S936,739.8,936,498.7
		S740.6,62.1,499.5,62.1z M499.5,868c-204,0-369.4-165.4-369.4-369.4s165.4-369.4,369.4-369.4s369.4,165.4,369.4,369.4
		S703.5,868,499.5,868z"/>
	<path class="st0" d="M712.2,588.2l-180-107.9V345.9c0-18.1-14.7-32.7-32.7-32.7c-18.1,0-32.7,14.7-32.7,32.7v152.8
		c0,0.6,0,1.2,0.1,1.8c0.2,11.5,6,22.7,16.4,28.9L679.5,647c15.6,9.4,35.7,3.8,44.7-12.4C733.2,618.3,727.9,597.5,712.2,588.2z"/>
</g>
</svg>
