<?xml version="1.0" encoding="UTF-8"?><!DOCTYPE svg PUBLIC "-//W3C//DTD SVG 1.1//EN" "http://www.w3.org/Graphics/SVG/1.1/DTD/svg11.dtd"><svg xmlns="http://www.w3.org/2000/svg" xmlns:xlink="http://www.w3.org/1999/xlink"><defs/><symbol id="clock" viewBox="0 0 997.8 997.8">
<style type="text/css">
	.st0{fill:#040000;}
</style>
<g>
	<path class="st0" d="M499.5,62.1c-241.1,0-436.5,195.4-436.5,436.5s195.4,436.5,436.5,436.5S936,739.8,936,498.7
		S740.6,62.1,499.5,62.1z M499.5,868c-204,0-369.4-165.4-369.4-369.4s165.4-369.4,369.4-369.4s369.4,165.4,369.4,369.4
		S703.5,868,499.5,868z"/>
	<path class="st0" d="M712.2,588.2l-180-107.9V345.9c0-18.1-14.7-32.7-32.7-32.7c-18.1,0-32.7,14.7-32.7,32.7v152.8
		c0,0.6,0,1.2,0.1,1.8c0.2,11.5,6,22.7,16.4,28.9L679.5,647c15.6,9.4,35.7,3.8,44.7-12.4C733.2,618.3,727.9,597.5,712.2,588.2z"/>
</g>
</symbol><symbol id="call" viewBox="0 0 997.795 997.795">
<g id="&#x56FE;&#x5C42;_x0020_1">
	<path fill="#332C2B" d="M65.225,231.279c0,0,82.602-113.216,118.318-141.052c35.745-27.836,54.851-42.066,103.55-7.427
		c48.671,34.64,85.635,72.992,113.386,116.306c27.723,43.313,36.964,82.262-7.398,111.345
		c-44.362,29.083-123.874,63.1-91.219,136.092c32.683,73.021,133.114,165.798,133.114,165.798s75.175,73.616,125.717,89.093
		c50.542,15.478,75.175-14.854,91.19-42.065c16.044-27.213,48.699-99.609,101.084-81.666
		c52.355,17.943,96.122,53.829,135.553,98.985c39.458,45.156,72.113,84.133,19.729,141.052
		c-52.384,56.92-138.047,116.306-138.047,116.306s-38.211,7.427-98.589-12.388c-60.378-19.785-273.601-93.401-426.444-277.143
		c-30.33-36.482-155.905-228.274-175.011-351.383C70.157,293.131,56.608,243.638,65.225,231.279z"/>
</g>
</symbol></svg>